<?xml version="1.0" encoding="utf-8"?>
<!-- Generator: Adobe Illustrator 23.0.3, SVG Export Plug-In . SVG Version: 6.00 Build 0)  -->
<svg version="1.1" id="Layer_1" xmlns="http://www.w3.org/2000/svg" xmlns:xlink="http://www.w3.org/1999/xlink" x="0px" y="0px"
	 viewBox="0 0 1920 1080" style="enable-background:new 0 0 1920 1080;" xml:space="preserve">
<style type="text/css">
	.st0{fill:none;}
	.st1{fill-rule:evenodd;clip-rule:evenodd;fill:url(#SVGID_1_);}
	.st2{fill-rule:evenodd;clip-rule:evenodd;fill:url(#SVGID_2_);}
	.st3{fill-rule:evenodd;clip-rule:evenodd;fill:url(#SVGID_3_);}
	.st4{fill-rule:evenodd;clip-rule:evenodd;fill:url(#SVGID_4_);}
	.st5{fill-rule:evenodd;clip-rule:evenodd;fill:url(#SVGID_5_);}
	.st6{fill-rule:evenodd;clip-rule:evenodd;fill:url(#SVGID_6_);}
	.st7{fill-rule:evenodd;clip-rule:evenodd;fill:url(#SVGID_7_);}
	.st8{fill-rule:evenodd;clip-rule:evenodd;fill:url(#SVGID_8_);}
	.st9{fill-rule:evenodd;clip-rule:evenodd;fill:url(#SVGID_9_);}
	.st10{fill-rule:evenodd;clip-rule:evenodd;fill:url(#SVGID_10_);}
	.st11{fill-rule:evenodd;clip-rule:evenodd;fill:url(#SVGID_11_);}
	.st12{fill-rule:evenodd;clip-rule:evenodd;fill:url(#SVGID_12_);}
	.st13{fill-rule:evenodd;clip-rule:evenodd;fill:url(#SVGID_13_);}
	.st14{fill-rule:evenodd;clip-rule:evenodd;fill:url(#SVGID_14_);}
	.st15{fill-rule:evenodd;clip-rule:evenodd;fill:url(#SVGID_15_);}
	.st16{fill-rule:evenodd;clip-rule:evenodd;fill:url(#SVGID_16_);}
	.st17{fill-rule:evenodd;clip-rule:evenodd;fill:#FFFFFF;}
	.st18{fill:url(#SVGID_17_);}
</style>
<pattern  x="-1955" width="566.9" height="566.9" patternUnits="userSpaceOnUse" id="New_Pattern" viewBox="54.4 -639.9 566.9 566.9" style="overflow:visible;">
	<g>
		<rect x="54.4" y="-639.9" class="st0" width="566.9" height="566.9"/>
		<g>
			
				<linearGradient id="SVGID_1_" gradientUnits="userSpaceOnUse" x1="712.7877" y1="12730.209" x2="804.4573" y2="12730.209" gradientTransform="matrix(0 -1 -1 0 12917.1846 145.8585)">
				<stop  offset="0" style="stop-color:#F9B617"/>
				<stop  offset="0.2" style="stop-color:#F36C21"/>
				<stop  offset="0.4" style="stop-color:#CB1E48"/>
				<stop  offset="0.61" style="stop-color:#5D57A6"/>
				<stop  offset="0.81" style="stop-color:#0085C8"/>
				<stop  offset="1" style="stop-color:#00AF4C"/>
			</linearGradient>
			<path class="st1" d="M145.4-658.4l85.6,43.8c1.6,0.8,1.6,3.1,0,3.9l-86.1,43.5c-1.5,0.7-3.2-0.3-3.2-2l0.5-87.3
				C142.2-658.1,144-659.1,145.4-658.4z M162.9-625.8v26.2c0,1.2,1.2,2,2.3,1.5l27.6-12.3c1.3-0.6,1.3-2.3,0.1-3l-27.6-13.9
				C164.2-627.8,162.9-627,162.9-625.8z"/>
			
				<linearGradient id="SVGID_2_" gradientUnits="userSpaceOnUse" x1="37345.7266" y1="-41032.2539" x2="37516.2344" y2="-41032.2539" gradientTransform="matrix(0 0.5376 0.5376 0 22265.6777 -20791.2344)">
				<stop  offset="0" style="stop-color:#F9B617"/>
				<stop  offset="0.2" style="stop-color:#F36C21"/>
				<stop  offset="0.4" style="stop-color:#CB1E48"/>
				<stop  offset="0.61" style="stop-color:#5D57A6"/>
				<stop  offset="0.81" style="stop-color:#0085C8"/>
				<stop  offset="1" style="stop-color:#00AF4C"/>
			</linearGradient>
			<path class="st2" d="M246.8-621.3l-85.6-43.8c-1.6-0.8-1.6-3.1,0-3.9l86.1-43.5c1.5-0.7,3.2,0.3,3.2,2l-0.5,87.3
				C249.9-621.7,248.2-620.6,246.8-621.3z M229.3-653.9v-26.2c0-1.2-1.2-2-2.3-1.5l-27.6,12.3c-1.3,0.6-1.3,2.3-0.1,3l27.6,13.9
				C228-651.9,229.3-652.7,229.3-653.9z"/>
		</g>
		<g>
			
				<linearGradient id="SVGID_3_" gradientUnits="userSpaceOnUse" x1="712.7877" y1="12446.7441" x2="804.4573" y2="12446.7441" gradientTransform="matrix(0 -1 -1 0 12917.1846 145.8585)">
				<stop  offset="0" style="stop-color:#F9B617"/>
				<stop  offset="0.2" style="stop-color:#F36C21"/>
				<stop  offset="0.4" style="stop-color:#CB1E48"/>
				<stop  offset="0.61" style="stop-color:#5D57A6"/>
				<stop  offset="0.81" style="stop-color:#0085C8"/>
				<stop  offset="1" style="stop-color:#00AF4C"/>
			</linearGradient>
			<path class="st3" d="M428.9-658.4l85.6,43.8c1.6,0.8,1.6,3.1,0,3.9l-86.1,43.5c-1.5,0.7-3.2-0.3-3.2-2l0.5-87.3
				C425.7-658.1,427.4-659.1,428.9-658.4z M446.3-625.8v26.2c0,1.2,1.2,2,2.3,1.5l27.6-12.3c1.3-0.6,1.3-2.3,0.1-3l-27.6-13.9
				C447.6-627.8,446.3-627,446.3-625.8z"/>
			
				<linearGradient id="SVGID_4_" gradientUnits="userSpaceOnUse" x1="37345.7266" y1="-40505.0117" x2="37516.2344" y2="-40505.0117" gradientTransform="matrix(0 0.5376 0.5376 0 22265.6777 -20791.2344)">
				<stop  offset="0" style="stop-color:#F9B617"/>
				<stop  offset="0.2" style="stop-color:#F36C21"/>
				<stop  offset="0.4" style="stop-color:#CB1E48"/>
				<stop  offset="0.61" style="stop-color:#5D57A6"/>
				<stop  offset="0.81" style="stop-color:#0085C8"/>
				<stop  offset="1" style="stop-color:#00AF4C"/>
			</linearGradient>
			<path class="st4" d="M530.2-621.3l-85.6-43.8c-1.6-0.8-1.6-3.1,0-3.9l86.1-43.5c1.5-0.7,3.2,0.3,3.2,2l-0.5,87.3
				C533.4-621.7,531.7-620.6,530.2-621.3z M512.8-653.9v-26.2c0-1.2-1.2-2-2.3-1.5l-27.6,12.3c-1.3,0.6-1.3,2.3-0.1,3l27.6,13.9
				C511.5-651.9,512.8-652.7,512.8-653.9z"/>
		</g>
		<g>
			
				<linearGradient id="SVGID_5_" gradientUnits="userSpaceOnUse" x1="429.3231" y1="12871.9414" x2="520.9927" y2="12871.9414" gradientTransform="matrix(0 -1 -1 0 12917.1846 145.8585)">
				<stop  offset="0" style="stop-color:#F9B617"/>
				<stop  offset="0.2" style="stop-color:#F36C21"/>
				<stop  offset="0.4" style="stop-color:#CB1E48"/>
				<stop  offset="0.61" style="stop-color:#5D57A6"/>
				<stop  offset="0.81" style="stop-color:#0085C8"/>
				<stop  offset="1" style="stop-color:#00AF4C"/>
			</linearGradient>
			<path class="st5" d="M3.7-374.9l85.6,43.8c1.6,0.8,1.6,3.1,0,3.9L3.2-283.7C1.7-283,0-284,0-285.7L0.5-373
				C0.5-374.6,2.2-375.6,3.7-374.9z M21.1-342.3v26.2c0,1.2,1.2,2,2.3,1.5l27.6-12.3c1.3-0.6,1.3-2.3,0.1-3l-27.6-13.9
				C22.4-344.3,21.1-343.5,21.1-342.3z"/>
			
				<linearGradient id="SVGID_6_" gradientUnits="userSpaceOnUse" x1="37872.9688" y1="-41295.875" x2="38043.4727" y2="-41295.875" gradientTransform="matrix(0 0.5376 0.5376 0 22265.6777 -20791.2344)">
				<stop  offset="0" style="stop-color:#F9B617"/>
				<stop  offset="0.2" style="stop-color:#F36C21"/>
				<stop  offset="0.4" style="stop-color:#CB1E48"/>
				<stop  offset="0.61" style="stop-color:#5D57A6"/>
				<stop  offset="0.81" style="stop-color:#0085C8"/>
				<stop  offset="1" style="stop-color:#00AF4C"/>
			</linearGradient>
			<path class="st6" d="M105-337.9l-85.6-43.8c-1.6-0.8-1.6-3.1,0-3.9l86.1-43.5c1.5-0.7,3.2,0.3,3.2,2l-0.5,87.3
				C108.2-338.2,106.5-337.1,105-337.9z M87.6-370.5v-26.2c0-1.2-1.2-2-2.3-1.5l-27.6,12.3c-1.3,0.6-1.3,2.3-0.1,3L85.2-369
				C86.3-368.4,87.6-369.2,87.6-370.5z"/>
		</g>
		<g>
			
				<linearGradient id="SVGID_7_" gradientUnits="userSpaceOnUse" x1="429.3231" y1="12588.4766" x2="520.9927" y2="12588.4766" gradientTransform="matrix(0 -1 -1 0 12917.1846 145.8585)">
				<stop  offset="0" style="stop-color:#F9B617"/>
				<stop  offset="0.2" style="stop-color:#F36C21"/>
				<stop  offset="0.4" style="stop-color:#CB1E48"/>
				<stop  offset="0.61" style="stop-color:#5D57A6"/>
				<stop  offset="0.81" style="stop-color:#0085C8"/>
				<stop  offset="1" style="stop-color:#00AF4C"/>
			</linearGradient>
			<path class="st7" d="M287.1-374.9l85.6,43.8c1.6,0.8,1.6,3.1,0,3.9l-86.1,43.5c-1.5,0.7-3.2-0.3-3.2-2L284-373
				C284-374.6,285.7-375.6,287.1-374.9z M304.6-342.3v26.2c0,1.2,1.2,2,2.3,1.5l27.6-12.3c1.3-0.6,1.3-2.3,0.1-3L307-343.8
				C305.9-344.3,304.6-343.5,304.6-342.3z"/>
			
				<linearGradient id="SVGID_8_" gradientUnits="userSpaceOnUse" x1="37872.9688" y1="-40768.6328" x2="38043.4727" y2="-40768.6328" gradientTransform="matrix(0 0.5376 0.5376 0 22265.6777 -20791.2344)">
				<stop  offset="0" style="stop-color:#F9B617"/>
				<stop  offset="0.2" style="stop-color:#F36C21"/>
				<stop  offset="0.4" style="stop-color:#CB1E48"/>
				<stop  offset="0.61" style="stop-color:#5D57A6"/>
				<stop  offset="0.81" style="stop-color:#0085C8"/>
				<stop  offset="1" style="stop-color:#00AF4C"/>
			</linearGradient>
			<path class="st8" d="M388.5-337.9l-85.6-43.8c-1.6-0.8-1.6-3.1,0-3.9l86.1-43.5c1.5-0.7,3.2,0.3,3.2,2l-0.5,87.3
				C391.7-338.2,389.9-337.1,388.5-337.9z M371-370.5v-26.2c0-1.2-1.2-2-2.3-1.5l-27.6,12.3c-1.3,0.6-1.3,2.3-0.1,3l27.6,13.9
				C369.8-368.4,371-369.2,371-370.5z"/>
		</g>
		<g>
			
				<linearGradient id="SVGID_9_" gradientUnits="userSpaceOnUse" x1="429.3231" y1="12305.0117" x2="520.9927" y2="12305.0117" gradientTransform="matrix(0 -1 -1 0 12917.1846 145.8585)">
				<stop  offset="0" style="stop-color:#F9B617"/>
				<stop  offset="0.2" style="stop-color:#F36C21"/>
				<stop  offset="0.4" style="stop-color:#CB1E48"/>
				<stop  offset="0.61" style="stop-color:#5D57A6"/>
				<stop  offset="0.81" style="stop-color:#0085C8"/>
				<stop  offset="1" style="stop-color:#00AF4C"/>
			</linearGradient>
			<path class="st9" d="M570.6-374.9l85.6,43.8c1.6,0.8,1.6,3.1,0,3.9l-86.1,43.5c-1.5,0.7-3.2-0.3-3.2-2l0.5-87.3
				C567.4-374.6,569.2-375.6,570.6-374.9z M588.1-342.3v26.2c0,1.2,1.2,2,2.3,1.5l27.6-12.3c1.3-0.6,1.3-2.3,0.1-3l-27.6-13.9
				C589.4-344.3,588.1-343.5,588.1-342.3z"/>
			
				<linearGradient id="SVGID_10_" gradientUnits="userSpaceOnUse" x1="37872.9688" y1="-40241.3906" x2="38043.4727" y2="-40241.3906" gradientTransform="matrix(0 0.5376 0.5376 0 22265.6777 -20791.2344)">
				<stop  offset="0" style="stop-color:#F9B617"/>
				<stop  offset="0.2" style="stop-color:#F36C21"/>
				<stop  offset="0.4" style="stop-color:#CB1E48"/>
				<stop  offset="0.61" style="stop-color:#5D57A6"/>
				<stop  offset="0.81" style="stop-color:#0085C8"/>
				<stop  offset="1" style="stop-color:#00AF4C"/>
			</linearGradient>
			<path class="st10" d="M672-337.9l-85.6-43.8c-1.6-0.8-1.6-3.1,0-3.9l86.1-43.5c1.5-0.7,3.2,0.3,3.2,2l-0.5,87.3
				C675.1-338.2,673.4-337.1,672-337.9z M654.5-370.5v-26.2c0-1.2-1.2-2-2.3-1.5l-27.6,12.3c-1.3,0.6-1.3,2.3-0.1,3l27.6,13.9
				C653.2-368.4,654.5-369.2,654.5-370.5z"/>
		</g>
		<g>
			
				<linearGradient id="SVGID_11_" gradientUnits="userSpaceOnUse" x1="145.8585" y1="12730.209" x2="237.5281" y2="12730.209" gradientTransform="matrix(0 -1 -1 0 12917.1846 145.8585)">
				<stop  offset="0" style="stop-color:#F9B617"/>
				<stop  offset="0.2" style="stop-color:#F36C21"/>
				<stop  offset="0.4" style="stop-color:#CB1E48"/>
				<stop  offset="0.61" style="stop-color:#5D57A6"/>
				<stop  offset="0.81" style="stop-color:#0085C8"/>
				<stop  offset="1" style="stop-color:#00AF4C"/>
			</linearGradient>
			<path class="st11" d="M145.4-91.4L231-47.6c1.6,0.8,1.6,3.1,0,3.9L144.9-0.2c-1.5,0.7-3.2-0.3-3.2-2l0.5-87.3
				C142.2-91.1,144-92.2,145.4-91.4z M162.9-58.9v26.2c0,1.2,1.2,2,2.3,1.5l27.6-12.3c1.3-0.6,1.3-2.3,0.1-3l-27.6-13.9
				C164.2-60.9,162.9-60.1,162.9-58.9z"/>
			
				<linearGradient id="SVGID_12_" gradientUnits="userSpaceOnUse" x1="38400.2109" y1="-41032.2539" x2="38570.7148" y2="-41032.2539" gradientTransform="matrix(0 0.5376 0.5376 0 22265.6777 -20791.2344)">
				<stop  offset="0" style="stop-color:#F9B617"/>
				<stop  offset="0.2" style="stop-color:#F36C21"/>
				<stop  offset="0.4" style="stop-color:#CB1E48"/>
				<stop  offset="0.61" style="stop-color:#5D57A6"/>
				<stop  offset="0.81" style="stop-color:#0085C8"/>
				<stop  offset="1" style="stop-color:#00AF4C"/>
			</linearGradient>
			<path class="st12" d="M246.8-54.4l-85.6-43.8c-1.6-0.8-1.6-3.1,0-3.9l86.1-43.5c1.5-0.7,3.2,0.3,3.2,2l-0.5,87.3
				C249.9-54.7,248.2-53.7,246.8-54.4z M229.3-87v-26.2c0-1.2-1.2-2-2.3-1.5l-27.6,12.3c-1.3,0.6-1.3,2.3-0.1,3l27.6,13.9
				C228-85,229.3-85.8,229.3-87z"/>
		</g>
		<g>
			
				<linearGradient id="SVGID_13_" gradientUnits="userSpaceOnUse" x1="145.8585" y1="12446.7441" x2="237.5281" y2="12446.7441" gradientTransform="matrix(0 -1 -1 0 12917.1846 145.8585)">
				<stop  offset="0" style="stop-color:#F9B617"/>
				<stop  offset="0.2" style="stop-color:#F36C21"/>
				<stop  offset="0.4" style="stop-color:#CB1E48"/>
				<stop  offset="0.61" style="stop-color:#5D57A6"/>
				<stop  offset="0.81" style="stop-color:#0085C8"/>
				<stop  offset="1" style="stop-color:#00AF4C"/>
			</linearGradient>
			<path class="st13" d="M428.9-91.4l85.6,43.8c1.6,0.8,1.6,3.1,0,3.9L428.4-0.2c-1.5,0.7-3.2-0.3-3.2-2l0.5-87.3
				C425.7-91.1,427.4-92.2,428.9-91.4z M446.3-58.9v26.2c0,1.2,1.2,2,2.3,1.5l27.6-12.3c1.3-0.6,1.3-2.3,0.1-3l-27.6-13.9
				C447.6-60.9,446.3-60.1,446.3-58.9z"/>
			
				<linearGradient id="SVGID_14_" gradientUnits="userSpaceOnUse" x1="38400.2109" y1="-40505.0117" x2="38570.7148" y2="-40505.0117" gradientTransform="matrix(0 0.5376 0.5376 0 22265.6777 -20791.2344)">
				<stop  offset="0" style="stop-color:#F9B617"/>
				<stop  offset="0.2" style="stop-color:#F36C21"/>
				<stop  offset="0.4" style="stop-color:#CB1E48"/>
				<stop  offset="0.61" style="stop-color:#5D57A6"/>
				<stop  offset="0.81" style="stop-color:#0085C8"/>
				<stop  offset="1" style="stop-color:#00AF4C"/>
			</linearGradient>
			<path class="st14" d="M530.2-54.4l-85.6-43.8c-1.6-0.8-1.6-3.1,0-3.9l86.1-43.5c1.5-0.7,3.2,0.3,3.2,2l-0.5,87.3
				C533.4-54.7,531.7-53.7,530.2-54.4z M512.8-87v-26.2c0-1.2-1.2-2-2.3-1.5l-27.6,12.3c-1.3,0.6-1.3,2.3-0.1,3l27.6,13.9
				C511.5-85,512.8-85.8,512.8-87z"/>
		</g>
	</g>
</pattern>
<g>
	<rect x="1981" width="1920" height="1080"/>
</g>
<g>
	<rect width="1920" height="1080"/>
</g>
<g>
	<rect x="-1955" width="1920" height="1080"/>
</g>
<g>
	<g>
		<linearGradient id="SVGID_15_" gradientUnits="userSpaceOnUse" x1="-1476.8073" y1="330" x2="-513.1927" y2="330">
			<stop  offset="0" style="stop-color:#F9B617"/>
			<stop  offset="0.2" style="stop-color:#F36C21"/>
			<stop  offset="0.4" style="stop-color:#CB1E48"/>
			<stop  offset="0.61" style="stop-color:#5D57A6"/>
			<stop  offset="0.81" style="stop-color:#0085C8"/>
			<stop  offset="1" style="stop-color:#00AF4C"/>
		</linearGradient>
		<path class="st15" d="M-1017.3,476.4h-72c-1.9,0-3.5-1.5-3.5-3.5v-20.7c0-1.9,1.5-3.5,3.5-3.5h63.9c1.9,0,3.5-1.5,3.5-3.5V420
			c0-1.9-1.5-3.5-3.5-3.5h-63.9c-1.9,0-3.5-1.5-3.5-3.5V395c0-1.9,1.5-3.5,3.5-3.5h70.7c1.9,0,3.5-1.5,3.5-3.5v-24.9
			c0-1.9-1.6-3.5-3.5-3.5l-102.5,1.2c-1.9,0-3.4,1.6-3.4,3.5v139.5c0,1.9,1.5,3.5,3.5,3.5h103.8c1.9,0,3.5-1.5,3.5-3.5v-24.1
			C-1013.8,477.9-1015.4,476.4-1017.3,476.4z M-840.7,359h-30c-1.2,0-2.3,0.6-2.9,1.6l-33.9,54.7c-1.3,2.1-4.4,2.2-5.8,0.1
			l-36.5-53.5c-0.7-1-1.7-1.5-2.9-1.5l-29.6,0.4c-1.9,0-3.4,1.6-3.4,3.5v140.2c0,1.9,1.5,3.5,3.5,3.5h27c1.9,0,3.5-1.6,3.5-3.5
			l-0.4-77.2c0-3.4,4.3-4.8,6.3-2l32.3,44.8c1.4,1.9,4.3,1.9,5.7-0.1l31-44.8c1.9-2.8,6.3-1.4,6.3,2v77.4c0,1.9,1.5,3.5,3.5,3.5
			h26.6c1.9,0,3.5-1.5,3.5-3.5V362.5C-837.2,360.6-838.8,359-840.7,359z M-1151.9,361.3l-138.4-0.8c-2.6,0-4.3,2.7-3.1,5l68.9,136.6
			c1.3,2.5,4.9,2.5,6.2,0l69.5-135.8C-1147.7,364.1-1149.3,361.4-1151.9,361.3z M-1198.2,397.8l-22,43.8c-1,2-3.8,1.9-4.7-0.1
			l-19.5-43.8c-0.8-1.7,0.5-3.7,2.4-3.7h41.6C-1198.5,394.1-1197.3,396.1-1198.2,397.8z M-958.9,308.5l51.6-146
			c0.8-2.3-0.9-4.6-3.3-4.6h-30.9c-1.5,0-2.8,1-3.3,2.4l-25.3,79.2c-1,3.2-5.5,3.2-6.6,0l-26.7-79.6c-0.5-1.4-1.8-2.4-3.3-2.4h-28.5
			c-1.5,0-2.8,0.9-3.3,2.3l-27.4,78.7c-1.1,3.1-5.5,3.1-6.5,0l-26.8-79c-0.5-1.4-1.8-2.4-3.3-2.4h-37.9l0.8,2l51.6,150.1
			c0.5,1.4,1.8,2.3,3.3,2.3h25.3c1.4,0,2.7-0.9,3.2-2.3l29.9-81.2c1.1-3,5.4-3,6.5,0l30.1,80.3c0.5,1.4,1.8,2.2,3.2,2.2h24.1
			C-960.7,310.8-959.4,309.9-958.9,308.5z M-878.3,309.8h29c1.9,0,3.5-1.5,3.5-3.5V161.3c0-1.9-1.5-3.5-3.5-3.5h-28.5
			c-1.9,0-3.5,1.5-3.5,3.4l-0.5,145.1C-881.8,308.2-880.2,309.8-878.3,309.8z M-806.6,310.2h27.3c1.9,0,3.5-1.5,3.5-3.5v-76.5
			c0-3.3,4.1-4.7,6.2-2.2l64.3,80.2c0.7,0.8,1.6,1.3,2.7,1.3h23.1c1.9,0,3.5-1.5,3.5-3.5V159.7c0-1.9-1.5-3.5-3.5-3.5h-22.7
			c-1.9,0-3.5,1.5-3.5,3.5v80.9c0,3.3-4.3,4.7-6.3,2l-61.7-84.1c-0.7-0.9-1.7-1.4-2.8-1.4l-30.1,0c-1.9,0-3.5,1.5-3.5,3.5v146.1
			C-810.1,308.6-808.5,310.2-806.6,310.2z M-515,230.6l-122.8-68.5c-2.3-1.3-5.1,0.4-5.1,3v139.4c0,2.7,2.9,4.3,5.2,3l122.8-70.9
			C-512.6,235.3-512.6,231.9-515,230.6z M-1270,310.5h111c1.9,0,3.5-1.5,3.5-3.5v-27.7c0-1.9-1.5-3.5-3.5-3.5h-74
			c-1.9,0-3.5-1.5-3.5-3.5v-19.1c0-1.9,1.5-3.5,3.5-3.5h61.9c1.9,0,3.5-1.5,3.5-3.5v-25.9c0-1.9-1.5-3.5-3.5-3.5h-60.8
			c-1.9,0-3.5-1.5-3.5-3.5v-20.4c0-1.9,1.5-3.5,3.5-3.5h71.9c1.9,0,3.5-1.5,3.5-3.5v-24.6c0-1.9-1.6-3.5-3.5-3.5l-110,0.2
			c-1.9,0-3.5,1.6-3.5,3.5V307C-1273.5,308.9-1271.9,310.5-1270,310.5z M-1301.3,282.4l-40.4,0c-2.9,0-4.5-3.3-2.7-5.6
			c8.9-11.3,28.5-36.4,34.7-45.1c8.9-12.5,9.7-28.1,9.7-28.1c3.9-40.8-33.3-44.2-35.8-44.4c-0.1,0-0.2,0-0.2,0l-67.8-0.2
			c-1.9,0-3.4-1.6-3.4-3.5v0c0-2.7-2.9-4.3-5.2-3l-15.7,9.1l-5,2.9c-2.3,1.3-5.2-0.3-5.2-3v-6c0-2.7-2.9-4.3-5.2-3l-15.7,9.1
			l-15.7,9.1c-2.3,1.3-2.3,4.7,0,6l15.7,9.1l15.7,9.1c2.3,1.3,5.2-0.3,5.2-3v-6c0-2.7,2.9-4.3,5.2-3l5,2.9l15.7,9.1
			c2.3,1.3,5.2-0.3,5.2-3v-1.2c0-1.9,1.5-3.5,3.4-3.5c17-0.1,47.6-0.2,53.6-0.2c11,0,21.1,1.3,22.4,10.2c1,7-6,16.4-6,16.4
			l-52.4,67.6c-0.5,0.6-0.7,1.4-0.7,2.1v22.9c0,1.9,1.5,3.5,3.5,3.5h82.4c1.9,0,3.5-1.5,3.5-3.5v-20.4
			C-1297.8,283.9-1299.3,282.4-1301.3,282.4z M-1382.3,252.5c0,0,25.6-32.3,34.6-42.7c3.9-4.5-0.1-9.3-4.4-9.3h-31.9
			c-1.9,0-3.5,1.5-3.5,3.5v46.8C-1387.5,253.5-1384,254.7-1382.3,252.5z M-722.8,363.9c-0.3-0.8-1.1-1.4-2-1.4h-33.4
			c-0.9,0-1.7,0.5-2,1.4l-55,141.2c-0.6,1.4,0.5,3,2,2.9l32.9-0.6c0.9,0,1.7-0.6,2-1.4l10.2-28c0.3-0.9,1.1-1.4,2-1.4h50.8
			c0.9,0,1.7,0.6,2,1.4l9.8,28c0.3,0.9,1.1,1.4,2,1.4l32,0.6c1.5,0,2.6-1.5,2-2.9L-722.8,363.9z M-726.4,450.6h-29
			c-1.5,0-2.5-1.5-2-2.9l13.3-36.4c0.3-0.8,1.1-1.4,2-1.4h2c0.9,0,1.7,0.6,2,1.4l13.7,36.4C-723.8,449.1-724.9,450.6-726.4,450.6z"
			/>
	</g>
</g>
<g>
	<g>
		<linearGradient id="SVGID_16_" gradientUnits="userSpaceOnUse" x1="-1782.4457" y1="771.2697" x2="-207.5543" y2="771.2697">
			<stop  offset="0" style="stop-color:#F9B617"/>
			<stop  offset="0.2" style="stop-color:#F36C21"/>
			<stop  offset="0.4" style="stop-color:#CB1E48"/>
			<stop  offset="0.61" style="stop-color:#5D57A6"/>
			<stop  offset="0.81" style="stop-color:#0085C8"/>
			<stop  offset="1" style="stop-color:#00AF4C"/>
		</linearGradient>
		<path class="st16" d="M-541.8,816.7h-68.8c-1.8,0-3.3-1.5-3.3-3.3v-19.7c0-1.8,1.5-3.3,3.3-3.3h61.1c1.8,0,3.3-1.5,3.3-3.3v-24.2
			c0-1.8-1.5-3.3-3.3-3.3h-61.1c-1.8,0-3.3-1.5-3.3-3.3V739c0-1.8,1.5-3.3,3.3-3.3h67.5c1.8,0,3.3-1.5,3.3-3.3v-23.7
			c0-1.8-1.5-3.3-3.3-3.3l-97.9,1.1c-1.8,0-3.3,1.5-3.3,3.3V843c0,1.8,1.5,3.3,3.3,3.3h99.1c1.8,0,3.3-1.5,3.3-3.3v-23
			C-538.5,818.2-540,816.7-541.8,816.7z M-373.1,704.6h-28.6c-1.1,0-2.2,0.6-2.8,1.6l-32.4,52.2c-1.3,2-4.2,2.1-5.5,0.1l-34.9-51.1
			c-0.6-0.9-1.7-1.5-2.8-1.4l-28.3,0.4c-1.8,0-3.3,1.5-3.3,3.3v133.9c0,1.8,1.5,3.3,3.3,3.3h25.8c1.8,0,3.3-1.5,3.3-3.3l-0.4-73.7
			c0-3.2,4.1-4.6,6-2l30.8,42.8c1.3,1.9,4.1,1.8,5.4-0.1l29.6-42.8c1.8-2.7,6-1.4,6,1.9v73.9c0,1.8,1.5,3.3,3.3,3.3h25.4
			c1.8,0,3.3-1.5,3.3-3.3V707.9C-369.8,706.1-371.3,704.6-373.1,704.6z M-670.3,706.8l-132.2-0.8c-2.5,0-4.1,2.6-3,4.8l65.8,130.4
			c1.2,2.4,4.7,2.4,5.9,0l66.3-129.6C-666.3,709.5-667.9,706.9-670.3,706.8z M-714.5,741.7l-21.1,41.8c-0.9,1.9-3.6,1.8-4.5-0.1
			l-18.6-41.8c-0.7-1.6,0.5-3.5,2.3-3.5h39.7C-714.9,738.1-713.7,740-714.5,741.7z M-1241.7,700.7h-29.5c-1.4,0-2.7,0.9-3.1,2.3
			l-24.2,75.6c-1,3-5.3,3.1-6.3,0l-25.5-76c-0.5-1.3-1.7-2.3-3.1-2.3h-27.2c-1.4,0-2.7,0.9-3.1,2.2l-26.2,75.2c-1,3-5.2,3-6.3,0
			l-25.6-75.5c-0.5-1.3-1.7-2.2-3.1-2.2h-36.2l0.7,1.9l49.3,143.4c0.5,1.3,1.7,2.2,3.1,2.2h24.2c1.4,0,2.6-0.9,3.1-2.2l28.6-77.5
			c1.1-2.9,5.1-2.9,6.2,0l28.7,76.7c0.5,1.3,1.7,2.1,3.1,2.1h23c1.4,0,2.6-0.9,3.1-2.2l49.3-139.4
			C-1237.8,702.9-1239.4,700.7-1241.7,700.7z M-1183.2,700.5h-27.2c-1.8,0-3.3,1.5-3.3,3.3l-0.5,138.5c0,1.8,1.5,3.3,3.3,3.3h27.7
			c1.8,0,3.3-1.5,3.3-3.3V703.8C-1179.9,702-1181.4,700.5-1183.2,700.5z M-1021.2,699.1h-21.7c-1.8,0-3.3,1.5-3.3,3.3v77.3
			c0,3.2-4.1,4.5-6,2l-58.9-80.3c-0.6-0.8-1.6-1.3-2.7-1.3l-28.8,0c-1.8,0-3.3,1.5-3.3,3.3v139.5c0,1.8,1.5,3.3,3.3,3.3h26.1
			c1.8,0,3.3-1.5,3.3-3.3v-73c0-3.1,3.9-4.5,5.9-2.1l61.4,76.6c0.6,0.8,1.6,1.2,2.6,1.2h22.1c1.8,0,3.3-1.5,3.3-3.3V702.4
			C-1017.8,700.5-1019.3,699.1-1021.2,699.1z M-864,770.1l-117.2-65.4c-2.2-1.2-4.9,0.4-4.9,2.9v133.1c0,2.5,2.8,4.1,5,2.9
			l117.2-67.7C-861.7,774.6-861.7,771.3-864,770.1z M-1479,813.2h-70.6c-1.8,0-3.3-1.5-3.3-3.3v-18.2c0-1.8,1.5-3.3,3.3-3.3h59.1
			c1.8,0,3.3-1.5,3.3-3.3v-24.7c0-1.8-1.5-3.3-3.3-3.3h-58.1c-1.8,0-3.3-1.5-3.3-3.3v-19.5c0-1.8,1.5-3.3,3.3-3.3h68.6
			c1.8,0,3.3-1.5,3.3-3.3v-23.5c0-1.8-1.5-3.3-3.3-3.3l-105,0.2c-1.8,0-3.3,1.5-3.3,3.3V843c0,1.8,1.5,3.3,3.3,3.3h106
			c1.8,0,3.3-1.5,3.3-3.3v-26.5C-1475.7,814.7-1477.2,813.2-1479,813.2z M-1614.8,819.5h-38.6c-2.8,0-4.3-3.2-2.6-5.3
			c8.5-10.8,27.3-34.8,33.1-43c8.5-11.9,9.3-26.9,9.3-26.9c3.8-39-31.8-42.2-34.2-42.4c-0.1,0-0.2,0-0.2,0l-64.8-0.2
			c-1.8,0-3.3-1.5-3.3-3.3c0-2.5-2.8-4.1-5-2.9l-15,8.7l-4.8,2.7c-2.2,1.3-5-0.3-5-2.9v-5.7c0-2.5-2.8-4.1-5-2.9l-15,8.7l-15,8.7
			c-2.2,1.3-2.2,4.5,0,5.7l15,8.7l15,8.7c2.2,1.3,5-0.3,5-2.9v-5.7c0-2.5,2.8-4.1,5-2.9l4.8,2.7l15,8.7c2.2,1.3,5-0.3,5-2.9v-1.1
			c0-1.8,1.5-3.3,3.3-3.3c16.3-0.1,45.4-0.2,51.2-0.2c10.5,0,20.1,1.3,21.4,9.7c1,6.7-5.8,15.7-5.8,15.7l-50.1,64.6
			c-0.4,0.6-0.7,1.3-0.7,2v21.8c0,1.8,1.5,3.3,3.3,3.3h78.7c1.8,0,3.3-1.5,3.3-3.3v-19.5C-1611.5,821-1613,819.5-1614.8,819.5z
			 M-1692.2,791c0,0,24.5-30.8,33-40.8c3.7-4.3-0.1-8.9-4.2-8.9h-30.4c-1.8,0-3.3,1.5-3.3,3.3v44.7
			C-1697.2,791.9-1693.8,793.1-1692.2,791z M-207.7,844l-52.9-134.8c-0.3-0.8-1.1-1.3-1.9-1.3h-31.9c-0.8,0-1.6,0.5-1.9,1.3
			L-348.8,844c-0.5,1.4,0.5,2.8,2,2.8l31.4-0.5c0.9,0,1.6-0.6,1.9-1.4l9.7-26.8c0.3-0.8,1.1-1.4,1.9-1.4h48.5c0.9,0,1.7,0.6,1.9,1.4
			l9.3,26.7c0.3,0.8,1,1.4,1.9,1.4l30.5,0.5C-208.2,846.9-207.2,845.4-207.7,844z M-264,792.1h-27.7c-1.4,0-2.4-1.4-1.9-2.8
			l12.7-34.8c0.3-0.8,1.1-1.4,1.9-1.4h1.9c0.9,0,1.6,0.5,1.9,1.3l13.1,34.8C-261.6,790.7-262.5,792.1-264,792.1z"/>
	</g>
</g>
<g>
	<g>
		<path class="st17" d="M937.7,516.6h-72c-1.9,0-3.5-1.5-3.5-3.5v-20.7c0-1.9,1.5-3.5,3.5-3.5h63.9c1.9,0,3.5-1.5,3.5-3.5v-25.3
			c0-1.9-1.5-3.5-3.5-3.5h-63.9c-1.9,0-3.5-1.5-3.5-3.5v-18.1c0-1.9,1.5-3.5,3.5-3.5h70.7c1.9,0,3.5-1.5,3.5-3.5v-24.9
			c0-1.9-1.6-3.5-3.5-3.5l-102.5,1.2c-1.9,0-3.4,1.6-3.4,3.5v139.5c0,1.9,1.5,3.5,3.5,3.5h103.8c1.9,0,3.5-1.5,3.5-3.5v-24.1
			C941.2,518.2,939.6,516.6,937.7,516.6z M1114.3,399.2h-30c-1.2,0-2.3,0.6-2.9,1.6l-33.9,54.7c-1.3,2.1-4.4,2.2-5.8,0.1l-36.5-53.5
			c-0.7-1-1.7-1.5-2.9-1.5l-29.6,0.4c-1.9,0-3.4,1.6-3.4,3.5v140.2c0,1.9,1.5,3.5,3.5,3.5h27c1.9,0,3.5-1.6,3.5-3.5l-0.4-77.2
			c0-3.4,4.3-4.8,6.3-2l32.3,44.8c1.4,1.9,4.3,1.9,5.7-0.1l31-44.8c1.9-2.8,6.3-1.4,6.3,2v77.4c0,1.9,1.5,3.5,3.5,3.5h26.6
			c1.9,0,3.5-1.5,3.5-3.5V402.7C1117.8,400.8,1116.2,399.2,1114.3,399.2z M803.1,401.6l-138.4-0.8c-2.6,0-4.3,2.7-3.1,5l68.9,136.6
			c1.3,2.5,4.9,2.5,6.2,0l69.5-135.8C807.3,404.3,805.7,401.6,803.1,401.6z M756.8,438.1l-22,43.8c-1,2-3.8,1.9-4.7-0.1L710.6,438
			c-0.8-1.7,0.5-3.7,2.4-3.7h41.6C756.5,434.3,757.7,436.3,756.8,438.1z M996.1,348.8l51.6-146c0.8-2.3-0.9-4.6-3.3-4.6h-30.9
			c-1.5,0-2.8,1-3.3,2.4L985,279.8c-1,3.2-5.5,3.2-6.6,0l-26.7-79.6c-0.5-1.4-1.8-2.4-3.3-2.4H920c-1.5,0-2.8,0.9-3.3,2.3
			l-27.4,78.7c-1.1,3.1-5.5,3.1-6.5,0l-26.8-79c-0.5-1.4-1.8-2.4-3.3-2.4h-37.9l0.8,2l51.6,150.1c0.5,1.4,1.8,2.3,3.3,2.3h25.3
			c1.4,0,2.7-0.9,3.2-2.3l29.9-81.2c1.1-3,5.4-3,6.5,0l30.1,80.3c0.5,1.4,1.8,2.2,3.2,2.2h24.1C994.3,351.1,995.6,350.1,996.1,348.8
			z M1076.7,350h29c1.9,0,3.5-1.5,3.5-3.5V201.5c0-1.9-1.5-3.5-3.5-3.5h-28.5c-1.9,0-3.5,1.5-3.5,3.4l-0.5,145.1
			C1073.2,348.5,1074.8,350,1076.7,350z M1148.4,350.4h27.3c1.9,0,3.5-1.5,3.5-3.5v-76.5c0-3.3,4.1-4.7,6.2-2.2l64.3,80.2
			c0.7,0.8,1.6,1.3,2.7,1.3h23.1c1.9,0,3.5-1.5,3.5-3.5V199.9c0-1.9-1.5-3.5-3.5-3.5h-22.7c-1.9,0-3.5,1.5-3.5,3.5v80.9
			c0,3.3-4.3,4.7-6.3,2l-61.7-84.1c-0.7-0.9-1.7-1.4-2.8-1.4l-30.1,0c-1.9,0-3.5,1.5-3.5,3.5V347
			C1144.9,348.9,1146.5,350.4,1148.4,350.4z M1440,270.9l-122.8-68.5c-2.3-1.3-5.1,0.4-5.1,3v139.4c0,2.7,2.9,4.3,5.2,3l122.8-70.9
			C1442.4,275.5,1442.4,272.2,1440,270.9z M685,350.7h111c1.9,0,3.5-1.5,3.5-3.5v-27.7c0-1.9-1.5-3.5-3.5-3.5h-74
			c-1.9,0-3.5-1.5-3.5-3.5v-19.1c0-1.9,1.5-3.5,3.5-3.5h61.9c1.9,0,3.5-1.5,3.5-3.5v-25.9c0-1.9-1.5-3.5-3.5-3.5h-60.8
			c-1.9,0-3.5-1.5-3.5-3.5v-20.4c0-1.9,1.5-3.5,3.5-3.5h71.9c1.9,0,3.5-1.5,3.5-3.5v-24.6c0-1.9-1.6-3.5-3.5-3.5l-110,0.2
			c-1.9,0-3.5,1.6-3.5,3.5v145.2C681.5,349.1,683.1,350.7,685,350.7z M653.7,322.6h-40.4c-2.9,0-4.5-3.3-2.7-5.6
			c8.9-11.3,28.5-36.4,34.7-45.1c8.9-12.5,9.7-28.1,9.7-28.1c3.9-40.8-33.3-44.2-35.8-44.4c-0.1,0-0.2,0-0.2,0l-67.8-0.2
			c-1.9,0-3.4-1.6-3.4-3.5v0c0-2.7-2.9-4.3-5.2-3l-15.7,9.1l-5,2.9c-2.3,1.3-5.2-0.3-5.2-3v-6c0-2.7-2.9-4.3-5.2-3l-15.7,9.1
			l-15.7,9.1c-2.3,1.3-2.3,4.7,0,6l15.7,9.1l15.7,9.1c2.3,1.3,5.2-0.3,5.2-3v-6c0-2.7,2.9-4.3,5.2-3l5,2.9l15.7,9.1
			c2.3,1.3,5.2-0.3,5.2-3v-1.2c0-1.9,1.5-3.5,3.4-3.5c17-0.1,47.6-0.2,53.6-0.2c11,0,21.1,1.3,22.4,10.2c1,7-6,16.4-6,16.4
			l-52.4,67.6c-0.5,0.6-0.7,1.4-0.7,2.1v22.9c0,1.9,1.5,3.5,3.5,3.5h82.4c1.9,0,3.5-1.5,3.5-3.5v-20.4
			C657.2,324.1,655.7,322.6,653.7,322.6z M572.7,292.7c0,0,25.6-32.3,34.6-42.7c3.9-4.5-0.1-9.3-4.4-9.3H571c-1.9,0-3.5,1.5-3.5,3.5
			v46.8C567.5,293.7,571,294.9,572.7,292.7z M1232.2,404.1c-0.3-0.8-1.1-1.4-2-1.4h-33.4c-0.9,0-1.7,0.5-2,1.4l-55,141.2
			c-0.6,1.4,0.5,3,2,2.9l32.9-0.6c0.9,0,1.7-0.6,2-1.4l10.2-28c0.3-0.9,1.1-1.4,2-1.4h50.8c0.9,0,1.7,0.6,2,1.4l9.8,28
			c0.3,0.9,1.1,1.4,2,1.4l32,0.6c1.5,0,2.6-1.5,2-2.9L1232.2,404.1z M1228.6,490.9h-29c-1.5,0-2.5-1.5-2-2.9l13.3-36.4
			c0.3-0.8,1.1-1.4,2-1.4h2c0.9,0,1.7,0.6,2,1.4l13.7,36.4C1231.2,489.4,1230.1,490.9,1228.6,490.9z"/>
	</g>
</g>
<g>
	<g>
		<path class="st17" d="M1413.2,856.9h-68.8c-1.8,0-3.3-1.5-3.3-3.3v-19.7c0-1.8,1.5-3.3,3.3-3.3h61.1c1.8,0,3.3-1.5,3.3-3.3v-24.2
			c0-1.8-1.5-3.3-3.3-3.3h-61.1c-1.8,0-3.3-1.5-3.3-3.3v-17.3c0-1.8,1.5-3.3,3.3-3.3h67.5c1.8,0,3.3-1.5,3.3-3.3v-23.7
			c0-1.8-1.5-3.3-3.3-3.3l-97.9,1.1c-1.8,0-3.3,1.5-3.3,3.3v133.2c0,1.8,1.5,3.3,3.3,3.3h99.1c1.8,0,3.3-1.5,3.3-3.3v-23
			C1416.5,858.4,1415,856.9,1413.2,856.9z M1581.9,744.9h-28.6c-1.1,0-2.2,0.6-2.8,1.6l-32.4,52.2c-1.3,2-4.2,2.1-5.5,0.1
			l-34.9-51.1c-0.6-0.9-1.7-1.5-2.8-1.4l-28.3,0.4c-1.8,0-3.3,1.5-3.3,3.3v133.9c0,1.8,1.5,3.3,3.3,3.3h25.8c1.8,0,3.3-1.5,3.3-3.3
			l-0.4-73.7c0-3.2,4.1-4.6,6-2l30.8,42.8c1.3,1.9,4.1,1.8,5.4-0.1l29.6-42.8c1.8-2.7,6-1.4,6,1.9v73.9c0,1.8,1.5,3.3,3.3,3.3h25.4
			c1.8,0,3.3-1.5,3.3-3.3V748.2C1585.2,746.3,1583.7,744.9,1581.9,744.9z M1284.7,747.1l-132.2-0.8c-2.5,0-4.1,2.6-3,4.8l65.8,130.4
			c1.2,2.4,4.7,2.4,5.9,0l66.3-129.6C1288.7,749.7,1287.1,747.1,1284.7,747.1z M1240.5,781.9l-21.1,41.8c-0.9,1.9-3.6,1.8-4.5-0.1
			l-18.6-41.8c-0.7-1.6,0.5-3.5,2.3-3.5h39.7C1240.1,778.3,1241.3,780.3,1240.5,781.9z M713.3,740.9h-29.5c-1.4,0-2.7,0.9-3.1,2.3
			l-24.2,75.6c-1,3-5.3,3.1-6.3,0l-25.5-76c-0.5-1.3-1.7-2.3-3.1-2.3h-27.2c-1.4,0-2.7,0.9-3.1,2.2l-26.2,75.2c-1,3-5.2,3-6.3,0
			l-25.6-75.5c-0.5-1.3-1.7-2.2-3.1-2.2h-36.2l0.7,1.9L544,885.5c0.5,1.3,1.7,2.2,3.1,2.2h24.2c1.4,0,2.6-0.9,3.1-2.2l28.6-77.5
			c1.1-2.9,5.1-2.9,6.2,0l28.7,76.7c0.5,1.3,1.7,2.1,3.1,2.1h23c1.4,0,2.6-0.9,3.1-2.2l49.3-139.4
			C717.2,743.2,715.6,740.9,713.3,740.9z M771.8,740.8h-27.2c-1.8,0-3.3,1.5-3.3,3.3l-0.5,138.5c0,1.8,1.5,3.3,3.3,3.3h27.7
			c1.8,0,3.3-1.5,3.3-3.3V744.1C775.1,742.3,773.6,740.8,771.8,740.8z M933.8,739.3h-21.7c-1.8,0-3.3,1.5-3.3,3.3v77.3
			c0,3.2-4.1,4.5-6,2l-58.9-80.3c-0.6-0.8-1.6-1.3-2.7-1.3l-28.8,0c-1.8,0-3.3,1.5-3.3,3.3V883c0,1.8,1.5,3.3,3.3,3.3h26.1
			c1.8,0,3.3-1.5,3.3-3.3v-73c0-3.1,3.9-4.5,5.9-2.1l61.4,76.6c0.6,0.8,1.6,1.2,2.6,1.2h22.1c1.8,0,3.3-1.5,3.3-3.3V742.6
			C937.2,740.8,935.7,739.3,933.8,739.3z M1091,810.3l-117.2-65.4c-2.2-1.2-4.9,0.4-4.9,2.9v133.1c0,2.5,2.8,4.1,5,2.9l117.2-67.7
			C1093.3,814.8,1093.3,811.6,1091,810.3z M476,853.5h-70.6c-1.8,0-3.3-1.5-3.3-3.3v-18.2c0-1.8,1.5-3.3,3.3-3.3h59.1
			c1.8,0,3.3-1.5,3.3-3.3v-24.7c0-1.8-1.5-3.3-3.3-3.3h-58.1c-1.8,0-3.3-1.5-3.3-3.3v-19.5c0-1.8,1.5-3.3,3.3-3.3H475
			c1.8,0,3.3-1.5,3.3-3.3v-23.5c0-1.8-1.5-3.3-3.3-3.3l-105,0.2c-1.8,0-3.3,1.5-3.3,3.3v138.6c0,1.8,1.5,3.3,3.3,3.3h106
			c1.8,0,3.3-1.5,3.3-3.3v-26.5C479.3,854.9,477.8,853.5,476,853.5z M340.2,859.7h-38.6c-2.8,0-4.3-3.2-2.6-5.3
			c8.5-10.8,27.3-34.8,33.1-43c8.5-11.9,9.3-26.9,9.3-26.9c3.8-39-31.8-42.2-34.2-42.4c-0.1,0-0.2,0-0.2,0l-64.8-0.2
			c-1.8,0-3.3-1.5-3.3-3.3c0-2.5-2.8-4.1-5-2.9l-15,8.7l-4.8,2.7c-2.2,1.3-5-0.3-5-2.9v-5.7c0-2.5-2.8-4.1-5-2.9l-15,8.7l-15,8.7
			c-2.2,1.3-2.2,4.5,0,5.7l30,17.3c2.2,1.3,5-0.3,5-2.9v-5.7c0-2.5,2.8-4.1,5-2.9l4.8,2.7l15,8.7c2.2,1.3,5-0.3,5-2.9v-1.1
			c0-1.8,1.5-3.3,3.3-3.3c16.3-0.1,45.4-0.2,51.2-0.2c10.5,0,20.1,1.3,21.4,9.7c1,6.7-5.8,15.7-5.8,15.7l-50.1,64.6
			c-0.4,0.6-0.7,1.3-0.7,2v21.8c0,1.8,1.5,3.3,3.3,3.3h78.7c1.8,0,3.3-1.5,3.3-3.3V863C343.5,861.2,342,859.7,340.2,859.7z
			 M262.8,831.2c0,0,24.5-30.8,33-40.8c3.7-4.3-0.1-8.9-4.2-8.9h-30.4c-1.8,0-3.3,1.5-3.3,3.3v44.7
			C257.8,832.1,261.2,833.3,262.8,831.2z M1747.3,884.3l-52.9-134.8c-0.3-0.8-1.1-1.3-1.9-1.3h-31.9c-0.8,0-1.6,0.5-1.9,1.3
			l-52.5,134.8c-0.5,1.4,0.5,2.8,2,2.8l31.4-0.5c0.9,0,1.6-0.6,1.9-1.4l9.7-26.8c0.3-0.8,1.1-1.4,1.9-1.4h48.5
			c0.9,0,1.7,0.6,1.9,1.4l9.3,26.7c0.3,0.8,1,1.4,1.9,1.4l30.5,0.5C1746.8,887.1,1747.8,885.6,1747.3,884.3z M1691,832.3h-27.7
			c-1.4,0-2.4-1.4-1.9-2.8l12.7-34.8c0.3-0.8,1.1-1.4,1.9-1.4h1.9c0.9,0,1.6,0.5,1.9,1.3l13.1,34.8
			C1693.4,830.9,1692.5,832.3,1691,832.3z"/>
	</g>
</g>
<pattern  id="SVGID_17_" xlink:href="#New_Pattern" patternTransform="matrix(1 0 0 1 87.5709 144.5)">
</pattern>
<polygon class="st18" points="1981,1080 1981,0 3901,0 3901,1080 "/>
</svg>
