<svg xmlns="http://www.w3.org/2000/svg" xmlns:xlink="http://www.w3.org/1999/xlink" viewBox="0 0 56.09 55.41"><defs><style>.cls-1,.cls-2{fill-rule:evenodd;}.cls-1{fill:url(#GradientFill_1);}.cls-2{fill:none;}</style><linearGradient id="GradientFill_1" y1="27.7" x2="56.09" y2="27.7" gradientUnits="userSpaceOnUse"><stop offset="0" stop-color="#f9b617"/><stop offset="0.2" stop-color="#f36c21"/><stop offset="0.4" stop-color="#cb1e48"/><stop offset="0.61" stop-color="#5d57a6"/><stop offset="0.81" stop-color="#0085c8"/><stop offset="1" stop-color="#00af4c"/></linearGradient></defs><g id="Layer_2" data-name="Layer 2"><g id="Layer_1-2" data-name="Layer 1"><path class="cls-1" d="M53.1.29,3,0A3,3,0,0,0,.33,4.35L25.27,53.76a3,3,0,0,0,5.35,0L55.76,4.66A3,3,0,0,0,53.1.29Zm-14,14.23-9,17.88a3,3,0,0,1-5.42-.13l-8-17.88a3,3,0,0,1,2.74-4.22h17A3,3,0,0,1,39.09,14.52Z"/><path class="cls-2" d="M36.41,10.17h-17a3,3,0,0,0-2.74,4.22l8,17.88a3,3,0,0,0,5.42.13l9-17.88A3,3,0,0,0,36.41,10.17Z"/></g></g></svg>