<?xml version="1.0" encoding="UTF-8"?>
<!DOCTYPE svg PUBLIC "-//W3C//DTD SVG 1.1//EN" "http://www.w3.org/Graphics/SVG/1.1/DTD/svg11.dtd">
<!-- Creator: CorelDRAW -->
<svg xmlns="http://www.w3.org/2000/svg" xml:space="preserve" width="7.03304in" height="0.662925in" version="1.1" style="shape-rendering:geometricPrecision; text-rendering:geometricPrecision; image-rendering:optimizeQuality; fill-rule:evenodd; clip-rule:evenodd"
viewBox="0 0 4757.39 448.43"
 xmlns:xlink="http://www.w3.org/1999/xlink"
 xmlns:xodm="http://www.corel.com/coreldraw/odm/2003">
 <defs>
  <style type="text/css">
   <![CDATA[
    .fil0 {fill:url(#id0)}
   ]]>
  </style>
  <linearGradient id="id0" gradientUnits="userSpaceOnUse" x1="-0" y1="224.21" x2="4757.39" y2="224.21">
   <stop offset="0" style="stop-opacity:1; stop-color:#FCB711"/>
   <stop offset="0.231373" style="stop-opacity:1; stop-color:#F37021"/>
   <stop offset="0.411765" style="stop-opacity:1; stop-color:#CC004C"/>
   <stop offset="0.6" style="stop-opacity:1; stop-color:#322D96"/>
   <stop offset="0.768627" style="stop-opacity:1; stop-color:#0089D0"/>
   <stop offset="1" style="stop-opacity:1; stop-color:#0DB14B"/>
  </linearGradient>
 </defs>
 <g id="Layer_x0020_1">
  <metadata id="CorelCorpID_0Corel-Layer"/>
  <path class="fil0" d="M2661.91 231.26c0,130.5 -85.75,209.84 -226.04,209.84l-120.56 0c-7.78,-0.01 -14.09,-6.32 -14.09,-14.1l0 -392.04c0,-7.78 6.31,-14.09 14.09,-14.09l120.63 0c140.22,-0.92 225.97,78.92 225.97,210.4zm-109.85 0c0,-66.02 -45.03,-106.19 -119.01,-106.19l-10.99 0c-7.78,0 -14.09,6.31 -14.09,14.09l0 183.2c0,7.77 6.31,14.09 14.09,14.09l11.98 0.01c73.21,-0.49 118.02,-40.16 118.02,-105.41l0 0.21zm1237.31 110.41l-205.47 0c-4.68,-0.04 -8.45,-3.85 -8.45,-8.53 0,0 0,0 0,0l-0 -60.74c0,-4.67 3.79,-8.46 8.46,-8.46l182.71 0.01c0,-0.01 0,-0.01 0,-0.01 4.68,0 8.49,-3.77 8.52,-8.45l0 -73.98c-0.04,-4.68 -3.85,-8.45 -8.52,-8.45 0,0 0,0 0,0l-182.71 -0c-4.67,0 -8.46,-3.79 -8.46,-8.46l0 -53.62c0,-4.67 3.79,-8.46 8.46,-8.46l201.87 0c4.67,0 8.46,-3.79 8.46,-8.46l0 -72.64c0,-0 0,-0 0,-0 0,-4.67 -3.79,-8.46 -8.46,-8.46 -0.05,0 -0.1,0 -0.14,0l-291.15 3.38c-4.65,0.08 -8.39,3.87 -8.39,8.52 0,0 0,0 0,0l0 395.57c0,4.66 3.79,8.45 8.46,8.45l295.1 0.01c4.67,-0.01 8.46,-3.79 8.46,-8.46l0 -70.46c-0.07,-4.62 -3.84,-8.32 -8.46,-8.32 -0.09,0 -0.19,0 -0.28,0.01l0 0.01zm497.6 -330.75l-86.46 0c-2.88,0.05 -5.53,1.57 -7.04,4.02l-97.1 156.28c-1.55,2.47 -4.25,3.96 -7.16,3.96 -2.76,0 -5.35,-1.35 -6.93,-3.61l-104.42 -152.9c-1.58,-2.29 -4.18,-3.66 -6.97,-3.66 -0.03,0 -0.05,0 -0.08,0l-85.4 1.13c-4.62,0.08 -8.35,3.83 -8.38,8.46l0 397.9c0,4.66 3.79,8.45 8.46,8.45l78.71 0.01c0,-0.01 0,-0.01 0,-0.01 4.67,0 8.46,-3.79 8.46,-8.46 0,-0.02 0,-0.05 0,-0.07l-1.13 -222.73c-0,-0.01 -0,-0.01 -0,-0.02 0,-4.67 3.79,-8.46 8.46,-8.46 2.7,0 5.24,1.29 6.83,3.48l94.42 130.85c1.59,2.32 4.23,3.72 7.05,3.72 2.82,0 5.46,-1.4 7.04,-3.73l90.61 -131.27c1.58,-2.3 4.19,-3.67 6.98,-3.67 4.67,0 8.46,3.79 8.46,8.46 0,0.03 0,0.06 0,0.08l0 223.37c0.04,4.67 3.85,8.45 8.52,8.45 0,0 0,0 0,0l77.51 0.01c4.67,-0.01 8.46,-3.79 8.46,-8.46l0 -403.04c0,-0 0,-0.01 0,-0.01 0,-4.71 -3.82,-8.52 -8.52,-8.52 -0.12,0 -0.24,0 -0.35,0.01l-0 0zm461.74 265.15l-28.18 0c-4.67,-0.01 -8.46,-3.79 -8.46,-8.46l0 -114.85c-0.04,-4.68 -3.85,-8.45 -8.53,-8.45 0,0 0,0 0,0l-76.24 -0c0,0 0,0 0,0 -4.68,0 -8.49,3.77 -8.52,8.45l0 115.07c0,-0.01 0,-0 0,-0 0,4.56 -3.62,8.3 -8.17,8.45l-88.36 2.61c-0.05,0 -0.11,0 -0.16,0 -4.71,0 -8.52,-3.82 -8.52,-8.52 0,-1.24 0.27,-2.47 0.8,-3.6l111.82 -234.85c0.55,-1.14 0.84,-2.4 0.84,-3.67 0,-4.58 -3.65,-8.33 -8.23,-8.45l-77.51 -2.54c-0.07,0 -0.15,0 -0.23,0 -3.32,0 -6.34,1.93 -7.73,4.93l-155.51 335.19c-0.53,1.12 -0.8,2.35 -0.8,3.59 0,4.67 3.79,8.46 8.46,8.46 0.01,0 0.02,0 0.03,0l224.85 0.01c0.02,-0.01 0.05,-0.01 0.07,-0.01 4.63,0 8.39,3.76 8.39,8.39 0,0.02 0,0.05 0,0.07l0 42.28c0.04,4.68 3.85,8.45 8.52,8.45 0,0 0,0 0,0l76.52 0.01c4.68,-0.05 8.45,-3.85 8.45,-8.53 0,0 0,0 0,0l0 -40.8c0,-4.67 3.79,-8.46 8.46,-8.46l28.18 0.01c4.67,-0.01 8.46,-3.79 8.46,-8.46l0 -77.51c0.01,-0.14 0.01,-0.29 0.01,-0.43 0,-4.63 -3.76,-8.39 -8.39,-8.39 -0.1,0 -0.2,0 -0.29,0.01l0 0.01zm-1337.86 -258.52l-394.24 -2.33c-0.05,0 -0.11,0 -0.17,0 -4.71,0 -8.52,3.82 -8.52,8.52 0,1.45 0.37,2.89 1.08,4.16l196.59 388.53c1.44,2.83 4.36,4.62 7.54,4.62 3.18,0 6.1,-1.79 7.54,-4.63l197.65 -386.55c0.62,-1.2 0.94,-2.53 0.94,-3.87 0,-4.65 -3.76,-8.43 -8.41,-8.46l0 0zm-110.06 81.73l-84.7 168.19c-1.4,2.95 -4.38,4.84 -7.65,4.84 -3.27,0 -6.25,-1.89 -7.65,-4.84l-75.04 -168.54c-0.48,-1.08 -0.74,-2.26 -0.74,-3.45 0,-4.67 3.79,-8.46 8.46,-8.46 0.01,0 0.02,0 0.03,0l159.67 0c0.02,-0 0.04,-0 0.06,-0 4.67,0 8.46,3.79 8.46,8.46 0,1.32 -0.31,2.63 -0.91,3.81l0 0zm-7.61 -12.26l-159.67 0c-0.01,0 -0.02,0 -0.03,0 -4.67,0 -8.46,3.79 -8.46,8.46 0,1.19 0.25,2.37 0.74,3.45l75.04 168.54c1.4,2.95 4.38,4.84 7.65,4.84 3.27,0 6.25,-1.89 7.65,-4.84l84.55 -168.26c0.57,-1.15 0.87,-2.43 0.87,-3.73 0,-4.62 -3.72,-8.39 -8.34,-8.46l0 0zm-1762.11 -71.8l-89.77 0c-0.01,0 -0.02,0 -0.04,0 -3.65,0 -6.89,2.37 -7.99,5.85l-72.79 227.73c-1.1,3.52 -4.37,5.92 -8.06,5.92 -3.69,0 -6.96,-2.4 -8.07,-5.93l-76.45 -228.86c-1.12,-3.44 -4.34,-5.78 -7.96,-5.78l-82.3 0c-0.02,0 -0.04,0 -0.06,0 -3.58,0 -6.78,2.26 -7.97,5.64l-78.78 226.53c-1.21,3.39 -4.42,5.66 -8.03,5.66 -3.61,0 -6.82,-2.27 -8.03,-5.67l-76.88 -227.52c-1.21,-3.4 -4.42,-5.68 -8.03,-5.71l-107.81 0 2.11 5.71 145.86 423.9c1.15,3.41 4.35,5.7 7.95,5.7 0.01,0 0.01,0 0.02,0l73.21 0c0.03,-0 0.06,-0 0.09,-0 3.52,0 6.66,-2.2 7.87,-5.5l85.82 -232.53c1.23,-3.31 4.39,-5.51 7.93,-5.51 3.53,0 6.7,2.2 7.93,5.51l86.31 230.34c1.21,3.3 4.35,5.49 7.87,5.49 0.01,0 0.01,0 0.02,0l69.61 0c0.01,-0.01 0.01,-0.01 0.01,-0.01 3.59,0 6.8,-2.26 8.02,-5.64l146.42 -414.1c0.3,-0.88 0.46,-1.81 0.46,-2.75 0,-4.69 -3.79,-8.5 -8.49,-8.52l-0 -0zm172.14 -0.42l-83 0c-0.02,-0 -0.05,-0 -0.07,-0 -4.63,0 -8.39,3.76 -8.39,8.39 0,0 0,0 0,0l-1.48 411.36c0,0.02 0,0.04 0,0.07 0,4.63 3.76,8.39 8.39,8.39 0.02,0 0.05,0 0.07,0l84.55 0c0,-0.01 0,-0.01 0,-0.01 4.68,0 8.49,-3.77 8.52,-8.45l0 -411.28c0,-0 0,-0 0,-0 0,-4.67 -3.79,-8.46 -8.46,-8.46 -0.05,0 -0.1,0 -0.14,0l-0 0zm478.15 -4.44l-66.59 0c-4.64,0.04 -8.38,3.81 -8.38,8.46 0,0.02 0,0.05 0,0.07l-0 233.16c0,0 0,0.01 0,0.02 0,4.67 -3.79,8.46 -8.46,8.46 -2.7,0 -5.24,-1.29 -6.83,-3.48l-176.72 -240.55c-1.55,-2.21 -4.09,-3.53 -6.79,-3.53 -0.08,0 -0.17,0 -0.25,0.01l-86.53 -0c0,0 0,0 0,0 -4.67,0 -8.46,3.79 -8.46,8.46 0,0.02 0,0.05 0,0.07l-0 414.18c0,4.66 3.79,8.45 8.46,8.45l79.48 0.01c4.67,-0.01 8.46,-3.79 8.46,-8.46l-0 -220.47c0,-0.01 0,-0.02 0,-0.03 0,-4.67 3.79,-8.46 8.46,-8.46 2.58,0 5.02,1.18 6.62,3.2l183.84 229.21c1.62,1.99 4.05,3.15 6.62,3.17l67.08 0c4.67,-0.01 8.46,-3.79 8.46,-8.46l-0 -414.94c0,0 0,0 0,0 0,-4.68 -3.77,-8.49 -8.45,-8.52l-0.01 0zm-1350.9 336.88l-210.82 0c-4.67,-0.01 -8.45,-3.79 -8.45,-8.46l0 -56.37c0,-4.67 3.79,-8.46 8.46,-8.46l176.92 0.01c0.03,-0 0.05,-0 0.07,-0 4.67,0 8.46,-3.79 8.46,-8.46 0,0 0,0 0,0l-0 -75.53c0,0 0,0 0,0 0,-4.67 -3.79,-8.46 -8.46,-8.46 -0.02,0 -0.05,0 -0.07,0l-174.19 0c-4.68,-0.04 -8.45,-3.85 -8.45,-8.52 0,0 0,0 0,0l-0.01 -59.96c0.01,0 0.01,0 0.01,0 0,-4.68 3.77,-8.49 8.45,-8.52l205.11 -0c4.67,0 8.46,-3.79 8.46,-8.46l-0 -71.8c0,-4.71 -3.82,-8.52 -8.52,-8.52l-312.36 0.71c-4.56,0.19 -8.17,3.95 -8.17,8.52 0,0 0,0.01 0,0.01l-0.01 411.64c0.04,4.68 3.85,8.45 8.53,8.45 0,0 0,0 0,0l315.31 0.01c4.67,-0.01 8.46,-3.79 8.46,-8.46l-0 -80.88c0,-0.01 0,-0.01 0,-0.01 0,-4.67 -3.79,-8.46 -8.46,-8.46 -0.09,0 -0.19,0 -0.28,0.01l-0 0.01zm-518.46 18.46c-0.13,0 -0.26,0.01 -0.39,0.01 -4.67,0 -8.46,-3.79 -8.46,-8.46 0,-1.89 0.64,-3.73 1.81,-5.22 24.17,-30.65 81.74,-104.07 99.35,-129.02 15.62,-23.7 25.05,-50.99 27.35,-79.28 7.95,-79.12 -39.4,-108.29 -71.95,-119l-57.15 72.58c25.86,1.13 47.77,7.05 50.94,28.18 2.96,19.87 -17.05,46.29 -17.05,46.29l-147.97 190.95c-1.12,1.48 -1.74,3.28 -1.76,5.14l0 66.16c0,4.67 3.79,8.46 8.46,8.46l79.2 0.01 60.88 -76.95 -23.25 0.14zm-210.68 -259.51l0 -15.5c0.13,-4.58 3.88,-8.22 8.46,-8.22 1.51,0 3,0.41 4.3,1.17l9.79 5.64 42.28 24.52c1.28,0.74 2.75,1.13 4.23,1.13 4.56,0 8.3,-3.62 8.45,-8.18 0,-0 0,-0 0,-0 0,-4.65 3.73,-8.45 8.38,-8.52l64.19 -0.42 62.42 -79.27 -126.41 -0.63c-4.65,-0.04 -8.41,-3.8 -8.45,-8.46l-0.01 -1.27c-0.14,-4.56 -3.89,-8.18 -8.45,-8.18 -1.49,0 -2.95,0.39 -4.23,1.13l-42.28 24.52 -9.79 5.64c-1.3,0.77 -2.79,1.17 -4.3,1.17 -4.58,0 -8.33,-3.65 -8.45,-8.22l-0 -16.07c-0.14,-4.56 -3.89,-8.18 -8.45,-8.18 -1.49,0 -2.95,0.39 -4.23,1.13l-42.28 24.52 -42.28 24.45c-2.62,1.53 -4.23,4.33 -4.23,7.36 0,3.03 1.61,5.83 4.23,7.36l42.28 24.45 42.28 24.52c1.25,0.69 2.66,1.06 4.09,1.06 4.67,0 8.46,-3.79 8.46,-8.46 0,-0.07 -0,-0.14 -0,-0.21l-0 0zm328.07 259.51l-43.54 0 -60.88 76.95 104.42 0c0.03,-0.01 0.05,-0.01 0.07,-0.01 4.67,0 8.46,-3.79 8.46,-8.46 0,0 0,0 0,0l-0 -59.96c0,-4.71 -3.82,-8.53 -8.52,-8.53l-0 0z"/>
 </g>
</svg>
